<svg id="Capa_1" enable-background="new 0 0 496.97 496.97" height="512" viewBox="0 0 496.97 496.97" width="512" xmlns="http://www.w3.org/2000/svg"><g><path d="m391.75 141.119v-4.87c0-17-9-32.74-23.66-41.36l-2.19-1.29c-3.2-1.88-7.3-1.2-9.72 1.62l-99.2 115.72-139.06 69.7 12.847 33.69 275.767-80.097z" fill="#98bce5"/><path d="m117.92 280.639h-82.93c-18.9 0-34.29 14.98-34.96 33.7l32.655 29.166 71.194 4.794 26.889-58.266z" fill="#efe2dd"/><g><path d="m487.97 273.229v86.15h-430.38l21.2-27.89 39.13-50.85 159.18-43.2c4.9-1.33 9.31-4.05 12.7-7.84l74.34-82.97c3.14-3.5 7.62-5.51 12.33-5.51h84.67c7.25 0 13.13 5.88 13.13 13.13v79.51c0 2.61.8 5.15 2.3 7.29l2.29 3.28c5.93 8.47 9.11 18.56 9.11 28.9z" fill="#7bacdf"/></g><g><g id="XMLID_192_"><path d="m482.13 316.549h-259.147c-9.705 0-11.543-13.794-2.177-16.336l74.365-20.182c4.9-1.33 9.31-4.05 12.7-7.84l74.34-82.97c3.14-3.5 7.62-5.51 12.33-5.51h79.73v-29.462c0-7.252-5.879-13.13-13.13-13.13h-84.67c-4.71 0-9.19 2.01-12.33 5.51l-74.34 82.97c-3.39 3.79-7.8 6.51-12.7 7.84l-159.18 43.2-39.13 50.85-21.2 27.89h36.269 14.314 379.796v-42.398c-1.907-.282-3.856-.432-5.84-.432z" fill="#5f99d7"/><path d="m125 341.549-125-27.22v41.73c0 8.66 5.8 16.24 14.16 18.5l108.47 29.23c.64.18 1.29.31 1.95.41l26.74-6.854v-40.149z" fill="#f3eae6"/><g><path d="m496.97 356.389v33.2c0 8.2-6.65 14.84-14.84 14.84h-354.68c-.96 0-1.93-.07-2.87-.23l.42-62.65h357.13c8.19 0 14.84 6.65 14.84 14.84z" fill="#faf7f7"/></g></g><g><path d="m143.946 300.258c-2.893 0-5.649-1.684-6.879-4.504l-8.221-18.855c-1.655-3.797.081-8.217 3.877-9.873 3.799-1.655 8.217.081 9.873 3.877l8.221 18.855c1.655 3.797-.081 8.217-3.877 9.873-.976.425-1.994.627-2.994.627z" fill="#f3eae6"/></g><g><path d="m180.945 290.829c-2.722 0-5.348-1.486-6.677-4.074l-14.004-27.255c-1.893-3.685-.441-8.206 3.243-10.099 3.685-1.894 8.206-.441 10.099 3.243l14.004 27.256c1.893 3.684.441 8.206-3.243 10.099-1.097.563-2.268.83-3.422.83z" fill="#f3eae6"/></g><g><path d="m219.313 277.201c-2.405 0-4.767-1.154-6.217-3.296l-19.64-29.007c-2.322-3.43-1.424-8.093 2.005-10.416 3.431-2.322 8.093-1.424 10.416 2.005l19.64 29.007c2.322 3.43 1.424 8.093-2.005 10.416-1.29.873-2.753 1.291-4.199 1.291z" fill="#f3eae6"/></g><g><path d="m254.94 266.457c-2.533 0-5.003-1.282-6.416-3.604l-20.554-33.8c-2.152-3.539-1.028-8.153 2.511-10.305 3.54-2.153 8.152-1.028 10.305 2.511l20.554 33.8c2.152 3.539 1.028 8.153-2.511 10.305-1.217.741-2.562 1.093-3.889 1.093z" fill="#f3eae6"/></g><g><path d="m291.479 254.125c-2.444 0-4.84-1.193-6.28-3.39l-28.195-43.024c-2.271-3.464-1.302-8.113 2.162-10.384 3.465-2.27 8.114-1.303 10.384 2.162l28.195 43.024c2.271 3.464 1.302 8.113-2.162 10.384-1.267.83-2.694 1.228-4.104 1.228z" fill="#f3eae6"/></g><g><path d="m323.547 232.613c-2.48 0-4.906-1.229-6.335-3.476l-32.068-50.416c-2.223-3.495-1.192-8.13 2.303-10.354 3.497-2.225 8.131-1.192 10.354 2.303l32.068 50.416c2.223 3.495 1.192 8.13-2.303 10.354-1.249.794-2.642 1.173-4.019 1.173z" fill="#f3eae6"/></g><g><path d="m346.354 201.094c-2.408 0-4.772-1.157-6.222-3.303l-31.572-46.735c-2.319-3.432-1.416-8.094 2.017-10.413 3.432-2.318 8.095-1.416 10.413 2.017l31.572 46.735c2.319 3.432 1.416 8.094-2.017 10.413-1.287.869-2.747 1.286-4.191 1.286z" fill="#f3eae6"/></g><g><path d="m367.193 169.635c-2.399 0-4.757-1.149-6.208-3.283l-29.296-43.075c-2.33-3.425-1.441-8.09 1.984-10.419 3.424-2.329 8.09-1.441 10.419 1.984l29.296 43.075c2.33 3.425 1.441 8.09-1.984 10.419-1.291.878-2.758 1.299-4.211 1.299z" fill="#f3eae6"/></g><circle cx="396.359" cy="260.344" fill="#f3eae6" r="50.563"/><path d="m402.266 241.448 1.421 4.374c.832 2.559 3.216 4.292 5.907 4.292h4.599c6.017 0 8.519 7.7 3.651 11.236l-3.721 2.703c-2.177 1.582-3.088 4.385-2.256 6.944l1.421 4.374c1.859 5.722-4.69 10.481-9.558 6.944l-3.721-2.703c-2.177-1.582-5.125-1.582-7.302 0l-3.721 2.703c-4.868 3.537-11.417-1.222-9.558-6.944l1.421-4.374c.832-2.559-.079-5.363-2.256-6.944l-3.721-2.703c-4.868-3.537-2.366-11.236 3.651-11.236h4.599c2.691 0 5.076-1.733 5.907-4.292l1.421-4.374c1.861-5.722 9.956-5.722 11.816 0z" fill="#5f99d7"/><g><g><path d="m310.884 314.479h-6.466c-4.142 0-7.5-3.358-7.5-7.5s3.358-7.5 7.5-7.5h6.466c4.142 0 7.5 3.358 7.5 7.5s-3.358 7.5-7.5 7.5z" fill="#8abbd5"/></g></g><g><g><path d="m269.744 314.479h-6.466c-4.142 0-7.5-3.358-7.5-7.5s3.358-7.5 7.5-7.5h6.466c4.142 0 7.5 3.358 7.5 7.5s-3.358 7.5-7.5 7.5z" fill="#8abbd5"/></g></g></g></g></svg>